<svg xmlns="http://www.w3.org/2000/svg" aria-hidden="true" style="position:absolute;width:0;height:0;overflow:hidden">
  <defs>
    <symbol id="icon-close" viewBox="0 0 32 32">
      <path fill="#4a2b5f" d="m8.533 25.333-1.867-1.867 7.467-7.467-7.467-7.467 1.867-1.867L16 14.132l7.467-7.467 1.867 1.867-7.467 7.467 7.467 7.467-1.867 1.867L16 17.866l-7.467 7.467z" style="fill:var(--color1, #4a2b5f)"/>
    </symbol>
    <symbol id="icon-left-arrow" viewBox="0 0 32 32">
      <path fill="#4a2b5f" d="M20.834 8.037 9.64 14.5c-1.43.825-1.43 2.175 0 3l11.195 6.463c1.43.826 2.598.15 2.598-1.5V9.537c0-1.65-1.169-2.326-2.599-1.5z" style="fill:var(--color1, #4a2b5f)"/>
    </symbol>
    <symbol id="icon-menu" viewBox="0 0 32 32">
      <path fill="#4a2b5f" d="M4 24v-2h24v2H4zm0-7v-2h24v2H4zm0-7V8h24v2H4z" style="fill:var(--color1, #4a2b5f)"/>
    </symbol>
    <symbol id="icon-right-arrow" viewBox="0 0 32 32">
      <path fill="#4a2b5f" d="M11.166 23.963 22.36 17.5c1.43-.825 1.43-2.175 0-3L11.165 8.037c-1.43-.826-2.598-.15-2.598 1.5v12.926c0 1.65 1.169 2.326 2.599 1.5z" style="fill:var(--color1, #4a2b5f)"/>
    </symbol>
  </defs>
</svg>
